<?xml version="1.0" encoding="UTF-8" standalone="no"?>
<!-- Created with Inkscape (http://www.inkscape.org/) -->

<svg
   xmlns:dc="http://purl.org/dc/elements/1.1/"
   xmlns:cc="http://creativecommons.org/ns#"
   xmlns:rdf="http://www.w3.org/1999/02/22-rdf-syntax-ns#"
   xmlns:svg="http://www.w3.org/2000/svg"
   xmlns="http://www.w3.org/2000/svg"
   xmlns:sodipodi="http://sodipodi.sourceforge.net/DTD/sodipodi-0.dtd"
   xmlns:inkscape="http://www.inkscape.org/namespaces/inkscape"
   width="744.09448819"
   height="1052.3622047"
   id="svg2"
   version="1.1"
   inkscape:version="0.48.2 r9819"
   sodipodi:docname="candlestick_logo_new.svg"
   inkscape:export-filename="/Users/kathy/dev/candlestick/res/common/logo/candlestick_logo_new.png"
   inkscape:export-xdpi="553.75665"
   inkscape:export-ydpi="553.75665">
  <defs
     id="defs4" />
  <sodipodi:namedview
     id="base"
     pagecolor="#7d7d7d"
     bordercolor="#666666"
     borderopacity="1.0"
     inkscape:pageopacity="0"
     inkscape:pageshadow="2"
     inkscape:zoom="0.70710678"
     inkscape:cx="199.19782"
     inkscape:cy="719.62228"
     inkscape:document-units="px"
     inkscape:current-layer="layer2"
     showgrid="false"
     inkscape:window-width="1680"
     inkscape:window-height="937"
     inkscape:window-x="0"
     inkscape:window-y="0"
     inkscape:window-maximized="1"
     showguides="false"
     inkscape:guide-bbox="true">
    <sodipodi:guide
       orientation="0,1"
       position="136.875,634.375"
       id="guide3774" />
    <sodipodi:guide
       orientation="0,1"
       position="299.81328,722.66313"
       id="guide3779" />
    <sodipodi:guide
       orientation="0,1"
       position="177.125,810.5"
       id="guide3868" />
    <sodipodi:guide
       orientation="1,0"
       position="153.44217,703.9248"
       id="guide3870" />
    <sodipodi:guide
       orientation="1,0"
       position="319.625,693.625"
       id="guide3872" />
    <sodipodi:guide
       orientation="0,1"
       position="228.74904,822.01163"
       id="guide3874" />
    <sodipodi:guide
       orientation="0,1"
       position="219.2031,623.31463"
       id="guide3876" />
    <sodipodi:guide
       orientation="1,0"
       position="334.46151,707.10678"
       id="guide3878" />
  </sodipodi:namedview>
  <metadata
     id="metadata7">
    <rdf:RDF>
      <cc:Work
         rdf:about="">
        <dc:format>image/svg+xml</dc:format>
        <dc:type
           rdf:resource="http://purl.org/dc/dcmitype/StillImage" />
        <dc:title></dc:title>
      </cc:Work>
    </rdf:RDF>
  </metadata>
  <g
     inkscape:groupmode="layer"
     id="layer2"
     inkscape:label="bg">
    <path
       style="fill:#2d2d2d;fill-opacity:1;stroke:#e1e1de;stroke-width:12.65000000000000036;stroke-linecap:butt;stroke-miterlimit:4;stroke-opacity:1;stroke-dasharray:none;marker-start:none;stroke-linejoin:miter"
       d="m 146.25686,233.84985 0,192.14522 119.72694,0 59.89779,-96.07261 -59.89779,-96.07261 -119.72694,0 z"
       id="rect3755"
       inkscape:connector-curvature="0" />
  </g>
  <g
     inkscape:label="shapes"
     inkscape:groupmode="layer"
     id="layer1"
     style="display:inline">
    <g
       transform="matrix(4.6179707,0,0,4.6179707,1670.9822,-77.385385)"
       style="font-size:40px;font-style:normal;font-weight:normal;line-height:125%;letter-spacing:0px;word-spacing:0px;fill:#e1e1de;fill-opacity:1;stroke:#e1e1de;stroke-width:1.00001109000000010;stroke-miterlimit:4;stroke-opacity:1;font-family:Sans"
       id="flowRoot3003">
      <path
         d="m -309.63965,85.074707 0,-3.959961 c -1.30698,-0.292952 -2.34702,-0.439436 -3.12012,-0.439453 -1.91976,1.7e-5 -3.35307,0.679948 -4.29992,2.039795 -0.94687,1.359877 -1.4203,3.239758 -1.42029,5.639648 -10e-6,2.39991 0.47993,4.299932 1.43982,5.700074 0.95987,1.400148 2.38667,2.100221 4.28039,2.100219 1.19954,2e-6 2.8662,-0.373533 5,-1.120605 l 0.59937,2.000732 c -2.10613,0.799968 -3.95916,1.199951 -5.55908,1.199951 -2.61394,0 -4.60755,-0.873412 -5.98084,-2.620239 -1.37329,-1.746822 -2.05994,-4.180088 -2.05993,-7.299805 -1e-5,-3.119697 0.68013,-5.512883 2.0404,-7.179565 1.36026,-1.666648 3.36038,-2.499981 6.00037,-2.5 1.75942,1.9e-5 3.50584,0.279967 5.23926,0.839844 l 0,5.599365 z"
         style="font-variant:normal;font-stretch:normal;fill:#e1e1de;stroke:#e1e1de;font-family:Lekton;-inkscape-font-specification:Lekton;fill-opacity:1;stroke-opacity:1"
         id="path3053"
         inkscape:connector-curvature="0" />
    </g>
  </g>
  <g
     inkscape:groupmode="layer"
     id="layer5"
     inkscape:label="orig"
     sodipodi:insensitive="true"
     style="display:none">
    <g
       style="display:inline"
       id="g3850"
       transform="translate(247.5,0)">
      <path
         inkscape:connector-curvature="0"
         id="path3852"
         d="m 149.50539,237.32482 0,185.19528 115.3964,0 57.73127,-92.59764 -57.73127,-92.59764 -115.3964,0 z"
         style="fill:#fafafa;fill-opacity:1;stroke:#fafafa;stroke-width:20.04299927;stroke-miterlimit:4;stroke-opacity:1;stroke-dasharray:none" />
      <path
         style="fill:#1a1a1a;fill-opacity:1;stroke:#1a1a1a;stroke-width:12;stroke-miterlimit:4;stroke-opacity:1;stroke-dasharray:none"
         d="m 159.36809,247.87498 0,164.09496 102.24864,0 51.15363,-82.04748 -51.15363,-82.04748 -102.24864,0 z"
         id="path3854"
         inkscape:connector-curvature="0" />
      <g
         transform="matrix(4.6179707,0,0,4.6179707,1670.9822,-77.385385)"
         style="font-size:40px;font-style:normal;font-weight:normal;line-height:125%;letter-spacing:0px;word-spacing:0px;fill:#fafafa;fill-opacity:1;stroke:#fafafa;stroke-width:1.00001109;stroke-miterlimit:4;stroke-opacity:1;font-family:Sans"
         id="g3856">
        <path
           d="m -309.63965,85.074707 0,-3.959961 c -1.30698,-0.292952 -2.34702,-0.439436 -3.12012,-0.439453 -1.91976,1.7e-5 -3.35307,0.679948 -4.29992,2.039795 -0.94687,1.359877 -1.4203,3.239758 -1.42029,5.639648 -10e-6,2.39991 0.47993,4.299932 1.43982,5.700074 0.95987,1.400148 2.38667,2.100221 4.28039,2.100219 1.19954,2e-6 2.8662,-0.373533 5,-1.120605 l 0.59937,2.000732 c -2.10613,0.799968 -3.95916,1.199951 -5.55908,1.199951 -2.61394,0 -4.60755,-0.873412 -5.98084,-2.620239 -1.37329,-1.746822 -2.05994,-4.180088 -2.05993,-7.299805 -1e-5,-3.119697 0.68013,-5.512883 2.0404,-7.179565 1.36026,-1.666648 3.36038,-2.499981 6.00037,-2.5 1.75942,1.9e-5 3.50584,0.279967 5.23926,0.839844 l 0,5.599365 z"
           style="font-variant:normal;font-stretch:normal;fill:#fafafa;stroke:#fafafa;font-family:Lekton;-inkscape-font-specification:Lekton"
           id="path3858"
           inkscape:connector-curvature="0" />
      </g>
    </g>
  </g>
</svg>
